<svg width="43" height="41" fill="none" xmlns="http://www.w3.org/2000/svg"><path d="M11.872 27.067H.947L2.693 20.5.947 13.933H12.32m18.042 0h11.585L40.11 20.5l1.837 6.567H30.806m6.415 0c-.167.314-.37.607-.608.872l-2.406 2.675-2.523 5.259-5.37.982L21.44 39.5l-4.872-2.65-5.371-.983-2.514-5.265-2.405-2.674a4.38 4.38 0 01-.573-.807m-.033-13.188c.168-.314.371-.607.61-.872l2.405-2.675 2.523-5.259 5.37-.982L21.452 1.5l4.873 2.65 5.37.983 2.515 5.265 2.405 2.674c.221.246.413.518.573.807m-20.342 6.557l3.106 3.386 6.094-6.644M13.88 28.748c-4.179-4.555-4.179-11.94 0-16.496 4.178-4.555 10.953-4.555 15.132 0s4.179 11.94 0 16.496c-4.179 4.555-10.954 4.555-15.132 0z" stroke="#1976D2" stroke-width="1.5" stroke-miterlimit="10" stroke-linecap="round" stroke-linejoin="round"/></svg>