<svg width="131" height="20" fill="none" xmlns="http://www.w3.org/2000/svg"><path d="M40.345 17.09c-2.632.672-4.682.672-6.229.672-4.28 0-9.262-2.118-9.262-8.059 0-5.94 4.28-8.257 10.126-8.257 1.065 0 3.315.099 4.883.772v3.465c-1.266-.772-3.316-1.05-4.28-1.05-3.516 0-6.329 1.446-6.329 5.189 0 3.07 2.25 4.99 5.364 4.99.583 0 1.166-.198 1.568-.297v-3.168h-2.532v-3.07h6.63v8.832m3.758-15.386h11.211v2.99h-7.012V7.98h6.63v2.97h-6.63v3.644h7.313v2.99H44.042V1.723zm19.007 9.128h1.266c1.466 0 3.214.198 3.214 1.822s-1.647 1.822-3.214 1.822h-1.266v-3.643zm-4.18 6.733h6.832c2.833 0 6.228-.772 6.228-4.614 0-1.92-1.064-3.069-3.315-3.465v-.099c1.748-.574 2.833-1.723 2.833-3.743 0-2.693-2.25-4.04-5.264-4.04H58.87v15.961zm4.18-12.871h1.266c1.466 0 2.832.099 2.832 1.544 0 1.347-1.466 1.723-2.832 1.723h-1.266V4.713zm11.894-2.99h11.312v2.99h-7.032V7.98h6.63v2.97h-6.63v3.644h7.313v2.99H74.943V1.723zm19.107 2.99h1.066c1.647 0 3.214.297 3.214 1.723 0 1.822-1.748 1.822-3.214 1.822H94.05V4.713zm-4.4 12.871h4.28v-6.237h.884c1.568 0 2.15.772 2.934 3.465l.984 2.792h4.38l-1.567-4.218c-.783-1.92-.884-3.168-2.25-3.544 2.15-.476 3.114-1.921 3.114-4.04 0-2.693-2.25-4.04-5.164-4.04H89.55v15.842h.1v-.02zm20.555-15.861h-4.28v15.841h4.28V1.723zm6.349 3.069h-3.998v-3.07h12.175v3.07h-3.978v12.792h-4.199V4.792z" fill="#000"/><path d="M20.253 1.723H4.179v15.841h16.074V1.723z" fill="#0072BA"/></svg>