<svg width="137" height="22" fill="none" xmlns="http://www.w3.org/2000/svg"><g clip-path="url(#clip0_47_48)"><path d="M10.422 9.16l-4.42-.558c-1.653-.206-1.787-.62-1.787-1.097 0-1.004 1.161-1.512 3.45-1.512 2.218 0 3.782.467 5.402 1.61l.424.3 1.803-2.992-.4-.306C12.862 3.05 10.7 2.388 7.664 2.388c-4.336 0-7.032 1.97-7.032 5.145 0 2.799 1.634 4.372 5 4.808l4.681.557c1.62.178 1.755.79 1.755 1.348 0 1.688-2.916 1.818-3.81 1.818-2.397 0-4.155-.57-6.062-1.967l-.44-.322L0 16.901l.382.297c2.2 1.712 4.44 2.442 7.49 2.442 4.91 0 7.726-1.987 7.726-5.451 0-1.98-.897-4.46-5.176-5.03zm7.856-2.75h6.038v12.84h3.635V6.41h6.038V2.75H18.28v3.66zm65.086-4.022c-4.895 0-8.446 3.627-8.446 8.626s3.551 8.626 8.446 8.626 8.447-3.627 8.447-8.626-3.552-8.626-8.447-8.626zm0 13.703c-2.878 0-4.813-2.04-4.813-5.077s1.934-5.077 4.813-5.077c2.894 0 4.838 2.04 4.838 5.077s-1.944 5.077-4.838 5.077z" fill="#1D1E1F"/><path d="M36.945 0v14.988L45.065 22V7.012L36.944 0zm9.133 7.012V22l8.12-7.012V0l-8.12 7.012zM55.212 0v14.988L63.331 22V7.012L55.212 0zm9.133 7.012V22l8.118-7.012V0l-8.118 7.012z" fill="#1B9665"/><path d="M110.206 9.26c0-3.773-2.643-6.51-6.287-6.51h-8.818v16.5h3.594v-3.565h5.334l1.799 3.565h4.022l-2.408-4.59c1.764-1.129 2.764-3.065 2.764-5.4zm-6.39 2.737h-5.121V6.438h5.121c1.716 0 2.782 1.081 2.782 2.821 0 1.688-1.065 2.738-2.782 2.738zm20.237-1.557l5.695-7.69h-4.103l-4.569 5.96h-3.501V2.75h-3.566v16.5h3.566v-6.88h3.564l4.776 6.88h4.155l-6.017-8.81zm12.946-7.69h-3.63v16.5h3.63V2.75z" fill="#1D1E1F"/></g><defs><clipPath id="clip0_47_48"><path fill="#fff" d="M0 0h137v22H0z"/></clipPath></defs></svg>