<svg width="135" height="33" fill="none" xmlns="http://www.w3.org/2000/svg"><path d="M68.759 14.498c-1.259 0-2.484 1.08-2.506 2.377-.023 1.364 1.19 2.206 2.426 2.206 1.259 0 2.483-1.08 2.506-2.388.023-1.365-1.19-2.195-2.426-2.195zm62.828 13.168c-1.576-3.07-1.939-7.141-2.256-10.962-.159-1.706-.023-3.605-.59-5.856-.261-.978-.59-1.808-1.224-2.536-.602-.728-1.656-1.228-2.574-1.194-.817 0-1.464.262-1.996.557a8.258 8.258 0 00-1.406 1.012 9.02 9.02 0 00-1.406 1.604c-.34.477-.624.955-.953 1.467-.045-.398-.09-.762-.136-1.046-.249-1.558-.612-3.594-1.258-5.413-.329-.91-.726-1.785-1.35-2.593-.317-.398-.702-.784-1.213-1.08a3.592 3.592 0 00-1.814-.512 3.52 3.52 0 00-.488.034c-1.247.205-1.95.876-2.551 1.513-.884.989-1.576 2.183-2.211 3.422a38.486 38.486 0 00-1.553 3.57c-2.574 6.755-3.141 11.008-4.502 16.716-.272 1.16.431 2.332 1.565 2.616 1.145.284 2.301-.432 2.574-1.604 1.418-5.97 1.904-9.801 4.331-16.17.477-1.25 1.191-2.899 1.916-4.161.295-.523.602-.967.851-1.274.034.057.068.137.102.205.612 1.205 1.111 3.627 1.383 5.413.034.227.125 1 .205 1.774.09.796.181 1.603.305 2.24.137.693.273 1.307.5 1.921.113.308.249.614.521.99.136.193.317.398.624.614a2.37 2.37 0 001.224.42h.114c.714-.022 1.054-.272 1.281-.409.397-.296.522-.477.669-.66.454-.59.805-1.261 1.225-2.012.407-.728.828-1.501 1.122-1.944.419-.66.737-1.172.986-1.536.261-.375.454-.59.726-.83l.239-.204c.011.057.033.113.044.182.375 1.41.307 3.024.465 5.128.329 3.798.624 8.415 2.71 12.565a2.122 2.122 0 001.894 1.183c.329 0 .658-.08.975-.24 1.055-.534 1.463-1.841.93-2.91zM100.337 4.39c-1.179-1.797-3.118-3.321-5.613-3.571a6.753 6.753 0 00-.669-.034c-1.201 0-2.301.318-3.288.75-3.435 1.501-5.805 4.242-7.2 7.426-1.406 3.195-1.927 6.834-1.939 10.53 0 2.353.216 4.718.59 7.038.17 1.057 1.077 1.82 2.097 1.82.114 0 .227-.012.352-.035 1.157-.193 1.95-1.308 1.757-2.49-.34-2.104-.533-4.253-.533-6.322 0-.376.012-.751.023-1.115 1.032.205 2.2.398 2.506.444 1.032.148 1.962.216 2.858.216.59 0 1.145-.034 1.712-.08 1.803-.16 3.333-.728 4.547-1.364a11.576 11.576 0 002.641-1.877c1.474-1.455 1.973-3.422 1.973-5.321-.022-2.07-.612-4.196-1.814-6.016zm-3.118 8.198c-.238.239-.85.739-1.655 1.16a7.567 7.567 0 01-2.937.887 15.317 15.317 0 01-3.605-.114c-.137-.023-.851-.137-1.566-.262a33.506 33.506 0 01-1.032-.204c.25-1.194.601-2.309 1.043-3.31 1.09-2.421 2.631-4.172 5.001-5.23.59-.261 1.157-.398 1.6-.387.079 0 .158 0 .225.012 1.032.114 1.838.682 2.529 1.694.67 1 1.066 2.4 1.066 3.582 0 1.092-.351 1.888-.669 2.172zm-73.385.113c-.226-2.126-.567-4.184-1.236-6.06-.669-1.854-1.712-3.605-3.458-4.742-.782-.512-1.712-.796-2.608-.785-1.44.012-2.653.626-3.662 1.422-1.508 1.205-2.71 2.888-3.754 4.753a28.859 28.859 0 00-2.426 5.833c-1.383 3.855-2.472 8.028-3.38 12.1-.26 1.17.466 2.33 1.611 2.592.159.034.318.057.476.057.975 0 1.849-.683 2.075-1.695.726-3.252 1.565-6.527 2.563-9.597.714.16 1.417.227 2.098.296 1.462.125 2.88.136 3.798.284 1.281.182 2.597.478 3.991.58.148 2.638.261 5.31.658 7.698.17 1.058 1.077 1.82 2.098 1.82.113 0 .238-.012.351-.023a2.182 2.182 0 001.758-2.502c-.545-3.218-.522-7.79-.953-12.03zm-7.28.182c-1.383-.204-2.811-.204-4.07-.307a9.586 9.586 0 01-1.054-.125c.623-1.603 1.428-3.218 2.29-4.469.601-.886 1.236-1.591 1.769-2.012.544-.432.907-.512 1.043-.512.09.011.147.011.329.114.657.42 1.247 1.228 1.735 2.57.499 1.364.805 3.195 1.02 5.23-.873-.113-1.916-.318-3.061-.489zm39.834 9.404c-.011-.295-.011-.602-.011-.91 0-1.432.102-3.047.102-4.639 0-1.17-.057-2.33-.284-3.48-.317-1.512-.794-2.74-1.644-3.706-.839-.978-2.143-1.524-3.277-1.49-1.565.023-2.8.682-3.923 1.399-1.111.739-2.12 1.626-2.97 2.433l-.262.262c-.01-.376-.01-.762-.01-1.149V9.836c0-1.137-.012-2.286-.194-3.445-.181-1.149-.544-2.366-1.406-3.423a4.152 4.152 0 00-1.213-1.024 3.422 3.422 0 00-1.633-.42c-.873.011-1.576.307-2.154.636-1.134.66-2.019 1.592-2.79 2.673-2.267 3.206-3.73 7.846-4.83 11.996-.25.967-.59 2.297-.884 3.696-.284 1.399-.533 2.831-.544 4.162a2.153 2.153 0 002.12 2.183c1.179.011 2.143-.955 2.143-2.16 0-.774.181-2.036.453-3.287.261-1.262.59-2.536.84-3.48.68-2.615 1.553-5.423 2.573-7.686.51-1.126 1.055-2.115 1.588-2.866.453-.648.907-1.091 1.259-1.33.102.227.204.557.272 1.012.113.716.136 1.683.136 2.763v1.171c0 1.729.022 3.662.567 5.618.102.363.294.83.748 1.25.442.433 1.123.66 1.633.637.612-.011.998-.193 1.292-.341.51-.284.828-.569 1.146-.864.465-.444.895-.933 1.258-1.365.363-.42.703-.796.794-.887.748-.716 1.599-1.455 2.37-1.955.76-.524 1.44-.728 1.61-.694h.056l.023.023c.08.056.442.523.67 1.717.135.67.192 1.58.192 2.604 0 1.41-.102 3.013-.102 4.639 0 .352 0 .716.023 1.08.056 1.672.124 2.911.34 4.72a2.134 2.134 0 002.109 1.91c.09 0 .17 0 .26-.012 1.168-.136 1.996-1.216 1.86-2.41-.193-1.695-.238-2.73-.306-4.39z" fill="#010202"/></svg>