<svg width="18" height="17" fill="none" xmlns="http://www.w3.org/2000/svg"><path d="M1 1h2.91l1.948 9.564c.066.33.249.625.515.835.266.21.599.322.94.315h7.069a1.47 1.47 0 00.94-.315 1.42 1.42 0 00.514-.835L17 4.571H4.636M6.818 16a.72.72 0 00.727-.714.721.721 0 00-.727-.715.721.721 0 00-.727.715c0 .394.326.714.727.714zm8 0c.402 0 .728-.32.728-.714a.721.721 0 00-.728-.715.721.721 0 00-.727.715c0 .394.326.714.727.714z" stroke="#fff" stroke-width="1.6" stroke-miterlimit="10" stroke-linecap="round" stroke-linejoin="round"/></svg>