<svg width="71" height="52" fill="none" xmlns="http://www.w3.org/2000/svg"><path d="M18.527 17.692h-9.38c-.987 0-1.787.827-1.787 1.846v23.077c0 1.02.8 1.846 1.787 1.846h24.12c.986 0 1.786-.826 1.786-1.846V19.538c0-1.02-.8-1.846-1.786-1.846h-8.934m15.187 2.77h25.013M39.52 26h25.013M39.52 32.462h25.013m-25.013 6.46h25.013M7.36 50h56.28C66.6 50 69 47.52 69 44.462V7.538C69 4.48 66.6 2 63.64 2H7.36C4.4 2 2 4.48 2 7.538v36.923C2 47.522 4.4 50 7.36 50zm1.787-36h2.68c.986 0 1.786-.827 1.786-1.846v-2.77c0-1.019-.8-1.846-1.786-1.846h-2.68c-.987 0-1.787.827-1.787 1.847v2.769c0 1.02.8 1.846 1.787 1.846zm21.44 0h2.68c.986 0 1.786-.827 1.786-1.846v-2.77c0-1.019-.8-1.846-1.786-1.846h-2.68c-.987 0-1.787.827-1.787 1.847v2.769c0 1.02.8 1.846 1.787 1.846zm-9.929 9.23h1.097c.946 0 1.728-.761 1.784-1.737l.683-12c.06-1.06-.756-1.955-1.784-1.955h-2.463c-1.028 0-1.844.895-1.784 1.955l.683 12c.056.976.838 1.738 1.784 1.738zm.549 11.078c-1.727 0-3.127-1.447-3.127-3.231 0-1.784 1.4-3.23 3.127-3.23 1.726 0 3.126 1.446 3.126 3.23s-1.4 3.23-3.126 3.23z" stroke="#425774" stroke-width="2.2" stroke-miterlimit="10" stroke-linecap="round" stroke-linejoin="round"/></svg>