<svg width="80" height="50" fill="none" xmlns="http://www.w3.org/2000/svg"><path d="M11.5 48l5.616-8.438m45.769 0L68.5 48m4.75-30.138v4.759c0 10.512-8.507 19.034-19 19.034h-28.5c-10.493 0-19-8.522-19-19.034V11.907m66.5 5.955H36.594a77.604 77.604 0 01-31.773-6.755 4.763 4.763 0 01-2.41-6.281A4.747 4.747 0 018.68 2.41a68.186 68.186 0 0027.913 5.934H73.25c2.624 0 4.75 2.13 4.75 4.759a4.754 4.754 0 01-4.75 4.758z" stroke="#425774" stroke-width="2.2" stroke-miterlimit="10" stroke-linecap="round" stroke-linejoin="round"/></svg>