<svg width="56" height="56" fill="none" xmlns="http://www.w3.org/2000/svg"><path d="M44.525 13.678h.661A8.813 8.813 0 0154 22.491v22.695A8.813 8.813 0 0145.186 54H10.814A8.814 8.814 0 012 45.186V22.491a8.813 8.813 0 018.814-8.813h.66m3.085 31.508V22.491m8.814 22.695V28.771m8.813 16.415V28.771M41 45.186V22.491M30.31 3.12a2.944 2.944 0 00-4.62 0c-2.277 2.884-5.402 7.32-5.402 9.898A7.707 7.707 0 0028 20.729a7.707 7.707 0 007.712-7.712c0-2.578-3.126-7.014-5.402-9.898z" stroke="#425774" stroke-width="2.2" stroke-miterlimit="10" stroke-linecap="round" stroke-linejoin="round"/></svg>