<svg width="212" height="427" fill="none" xmlns="http://www.w3.org/2000/svg"><path d="M422.714 316.257C402.713 108.996 222.746 0 222.746 0c86.038 127.483 109.928 319.97 7.355 355.218-109.523 37.604-196.484-84.922-94.438-216.447C49.033 172.097-8.408 260.063 1.008 357.008 12.223 473.524 115.747 558.88 232.21 547.63c116.462-11.251 201.747-114.858 190.504-231.373z" fill="url(#paint0_linear_83_5642)"/><path d="M251.928 263.104a61.385 61.385 0 01-17.688 43.877 61.3 61.3 0 01-43.627 18.241 61.291 61.291 0 01-43.628-18.241 61.362 61.362 0 01-17.687-43.877c0-33.92 61.319-104.398 61.319-104.398s61.311 70.516 61.311 104.398z" fill="url(#paint1_linear_83_5642)"/><path d="M85.54 389.138c55.302 84.046 177.64 90.048 235.034-1.95C391.912 272.802 315.498 98.076 222.746 0c86.038 127.483 109.928 319.97 7.355 355.218-109.523 37.604-196.484-84.922-94.438-216.447-56.075 41.081-107.319 163.428-50.124 250.367z" fill="url(#paint2_linear_83_5642)"/><path style="mix-blend-mode:screen" d="M85.54 389.136c-57.196-86.921-5.952-209.268 50.123-250.349C49.033 172.113-8.408 260.079 1.008 357.025c.37 3.806.838 7.575 1.403 11.306-6.591-51.879 30.453-56.128 55.83-6.171 24.606 48.505 72.978 100.017 147.961 91.989-46 .791-92.206-21.784-120.662-65.013z" fill="url(#paint3_linear_83_5642)"/><path style="mix-blend-mode:screen" d="M181.587 287.744c-18.08-2.383-35.529-21.002-38.212-43.643-3.089 7.226-4.972 13.765-4.972 19.004 0 24.658 17.251 44.982 40.142 50.88 7.58 1.932 17.176 1.659 21.225-3.853 4.812-6.615 1.827-19.749-18.183-22.388z" fill="url(#paint4_linear_83_5642)"/><defs><linearGradient id="paint0_linear_83_5642" x1="211.842" y1="603.4" x2="211.842" y2="213.121" gradientUnits="userSpaceOnUse"><stop stop-color="#1976D2"/><stop offset="1" stop-color="#51A8FF"/></linearGradient><linearGradient id="paint1_linear_83_5642" x1="186.427" y1="137.666" x2="191.707" y2="295.884" gradientUnits="userSpaceOnUse"><stop stop-color="#1976D2"/><stop offset="1" stop-color="#51A8FF"/></linearGradient><linearGradient id="paint2_linear_83_5642" x1="204.582" y1="444.984" x2="204.582" y2="235.141" gradientUnits="userSpaceOnUse"><stop offset=".234" stop-color="#6CB6FF"/><stop offset="1" stop-color="#1976D2"/></linearGradient><linearGradient id="paint3_linear_83_5642" x1="237.634" y1="258.553" x2="8.033" y2="385.021" gradientUnits="userSpaceOnUse"><stop stop-color="#5EB9FC"/><stop offset="1"/></linearGradient><linearGradient id="paint4_linear_83_5642" x1="191.314" y1="371.744" x2="161.09" y2="249.734" gradientUnits="userSpaceOnUse"><stop stop-color="#5EB9FC"/><stop offset="1"/></linearGradient></defs></svg>