<svg width="195" height="67" fill="none" xmlns="http://www.w3.org/2000/svg"><path d="M68.91 51.27c-.62 0-1.14-.14-1.56-.42-.42-.3-.68-.7-.78-1.2-.1-.52-.01-1.1.27-1.74l7.47-16.08c.36-.78.8-1.35 1.32-1.71.54-.36 1.15-.54 1.83-.54.68 0 1.27.18 1.77.54.52.36.97.93 1.35 1.71l7.47 16.08c.32.64.43 1.22.33 1.74-.08.52-.33.92-.75 1.2-.4.28-.9.42-1.5.42-.8 0-1.42-.18-1.86-.54-.42-.36-.8-.94-1.14-1.74l-1.62-3.81 2.1 1.53H71.25l2.13-1.53-1.62 3.81c-.36.8-.73 1.38-1.11 1.74-.38.36-.96.54-1.74.54zm8.49-15.66l-3.48 8.31-.84-1.44h8.73l-.84 1.44-3.51-8.31h-.06zm16.46 15.66c-.88 0-1.56-.24-2.04-.72-.48-.5-.72-1.19-.72-2.07V32.37c0-.92.24-1.61.72-2.07.48-.48 1.16-.72 2.04-.72.9 0 1.58.24 2.04.72.48.46.72 1.15.72 2.07v5.94h2.55l-.78.54 4.681-7.86c.38-.62.83-1.03 1.35-1.23.52-.22 1.03-.27 1.53-.15.52.12.96.37 1.32.75.38.36.6.82.66 1.38.06.54-.11 1.13-.51 1.77l-4.11 6.48-2.22-1.47c1.4.26 2.56.76 3.48 1.5.94.74 1.76 1.82 2.46 3.24l2.01 4.11c.36.74.47 1.39.33 1.95-.12.56-.4 1.01-.84 1.35-.44.34-.94.54-1.5.6-.56.06-1.1-.05-1.62-.33s-.93-.74-1.23-1.38l-2.04-4.5c-.38-.82-.85-1.4-1.41-1.74-.56-.34-1.28-.51-2.16-.51h-1.95v5.67c0 .88-.23 1.57-.69 2.07-.46.48-1.15.72-2.07.72zm21.895-.27c-.94 0-1.66-.24-2.16-.72-.48-.5-.72-1.21-.72-2.13V32.7c0-.92.24-1.62.72-2.1.5-.5 1.22-.75 2.16-.75h7.32c1.52 0 2.81.23 3.87.69 1.08.44 1.9 1.07 2.46 1.89.56.82.84 1.78.84 2.88 0 1.24-.36 2.3-1.08 3.18-.7.88-1.66 1.48-2.88 1.8v-.48c1.44.26 2.55.84 3.33 1.74.8.9 1.2 2.05 1.2 3.45 0 1.86-.67 3.33-2.01 4.41-1.32 1.06-3.13 1.59-5.43 1.59h-7.62zm2.4-4.05h4.47c1.02 0 1.76-.19 2.22-.57.48-.4.72-.99.72-1.77s-.24-1.36-.72-1.74c-.46-.38-1.2-.57-2.22-.57h-4.47v4.65zm0-8.7h3.93c1 0 1.73-.18 2.19-.54.48-.36.72-.91.72-1.65 0-.74-.24-1.28-.72-1.62-.46-.36-1.19-.54-2.19-.54h-3.93v4.35zm16.782 13.02c-.62 0-1.14-.14-1.56-.42-.42-.3-.68-.7-.78-1.2-.1-.52-.01-1.1.27-1.74l7.47-16.08c.36-.78.8-1.35 1.32-1.71.54-.36 1.15-.54 1.83-.54.68 0 1.27.18 1.77.54.52.36.97.93 1.35 1.71l7.47 16.08c.32.64.43 1.22.33 1.74-.08.52-.33.92-.75 1.2-.4.28-.9.42-1.5.42-.8 0-1.42-.18-1.86-.54-.42-.36-.8-.94-1.14-1.74l-1.62-3.81 2.1 1.53h-12.36l2.13-1.53-1.62 3.81c-.36.8-.73 1.38-1.11 1.74-.38.36-.96.54-1.74.54zm8.49-15.66l-3.48 8.31-.84-1.44h8.73l-.84 1.44-3.51-8.31h-.06zm16.461 15.66c-.88 0-1.56-.24-2.04-.72-.48-.5-.72-1.19-.72-2.07V32.64c0-.9.24-1.59.72-2.07.5-.48 1.19-.72 2.07-.72h7.38c2.4 0 4.25.62 5.55 1.86 1.32 1.22 1.98 2.91 1.98 5.07s-.66 3.86-1.98 5.1c-1.3 1.22-3.15 1.83-5.55 1.83h-4.65v4.77c0 .88-.23 1.57-.69 2.07-.46.48-1.15.72-2.07.72zm2.76-11.79h3.69c1.04 0 1.84-.22 2.4-.66.56-.46.84-1.14.84-2.04 0-.92-.28-1.6-.84-2.04-.56-.44-1.36-.66-2.4-.66h-3.69v5.4zm22.325 11.79c-.88 0-1.56-.24-2.04-.72-.48-.5-.72-1.19-.72-2.07V34.35h-4.71c-.74 0-1.31-.19-1.71-.57-.38-.4-.571-.96-.571-1.68 0-.74.191-1.3.571-1.68.4-.38.97-.57 1.71-.57h14.94c.74 0 1.3.19 1.68.57.4.38.6.94.6 1.68 0 .72-.2 1.28-.6 1.68-.38.38-.94.57-1.68.57h-4.71v14.13c0 .88-.23 1.57-.69 2.07-.46.48-1.15.72-2.07.72z" fill="#2F3946"/><path d="M51.335 38.407C48.905 13.236 27.05 0 27.05 0c10.449 15.482 13.35 38.857.894 43.138-13.3 4.567-23.861-10.313-11.469-26.286C5.955 20.9-1.021 31.582.122 43.355c1.362 14.15 13.934 24.516 28.078 23.15 14.143-1.367 24.5-13.949 23.135-28.098z" fill="url(#paint0_linear_1_2312)"/><path style="mix-blend-mode:screen" d="M38.79 10.343C32.839 3.507 27.05 0 27.05 0c8.893 13.176 12.316 32.067 5.46 40.04l3.708 10.38a43.491 43.491 0 008.142-15.905c2.315-8.477.195-17.55-5.57-24.172z" fill="url(#paint1_linear_1_2312)"/><path d="M30.594 31.952a7.456 7.456 0 01-4.575 6.967 7.442 7.442 0 01-9.777-4.088 7.456 7.456 0 01-.54-2.88c0-4.119 7.447-12.678 7.447-12.678s7.445 8.564 7.445 12.679z" fill="url(#paint2_linear_1_2312)"/><path d="M10.388 47.257c6.716 10.207 21.573 10.936 28.543-.237C47.594 33.13 38.314 11.91 27.05 0c10.448 15.482 13.35 38.857.893 43.138-13.3 4.567-23.861-10.313-11.469-26.286-6.81 4.99-13.033 19.847-6.087 30.405z" fill="url(#paint3_linear_1_2312)"/><path style="mix-blend-mode:screen" d="M10.388 47.257c-6.946-10.556-.723-25.414 6.087-30.402C5.955 20.902-1.021 31.585.122 43.356c.045.463.102.92.17 1.373-.8-6.3 3.699-6.816 6.78-.749 2.989 5.89 8.863 12.146 17.97 11.171-5.587.096-11.198-2.645-14.654-7.895z" fill="url(#paint4_linear_1_2312)"/><path style="mix-blend-mode:screen" d="M22.052 34.944c-2.196-.29-4.315-2.55-4.64-5.3-.376.877-.604 1.671-.604 2.308 0 2.994 2.095 5.462 4.875 6.178.92.235 2.085.202 2.577-.468.584-.803.222-2.398-2.208-2.718z" fill="url(#paint5_linear_1_2312)"/><defs><linearGradient id="paint0_linear_1_2312" x1="25.726" y1="73.277" x2="25.726" y2="25.882" gradientUnits="userSpaceOnUse"><stop stop-color="#1976D2"/><stop offset="1" stop-color="#51A8FF"/></linearGradient><linearGradient id="paint1_linear_1_2312" x1="53.75" y1="-7.228" x2="26.797" y2="32.418" gradientUnits="userSpaceOnUse"><stop stop-color="#5EB9FC"/><stop offset="1"/></linearGradient><linearGradient id="paint2_linear_1_2312" x1="22.64" y1="16.718" x2="23.281" y2="35.932" gradientUnits="userSpaceOnUse"><stop stop-color="#1976D2"/><stop offset="1" stop-color="#51A8FF"/></linearGradient><linearGradient id="paint3_linear_1_2312" x1="24.845" y1="54.039" x2="24.845" y2="28.556" gradientUnits="userSpaceOnUse"><stop offset=".234" stop-color="#6CB6FF"/><stop offset="1" stop-color="#1976D2"/></linearGradient><linearGradient id="paint4_linear_1_2312" x1="28.858" y1="31.399" x2=".976" y2="46.757" gradientUnits="userSpaceOnUse"><stop stop-color="#5EB9FC"/><stop offset="1"/></linearGradient><linearGradient id="paint5_linear_1_2312" x1="23.233" y1="45.145" x2="19.563" y2="30.328" gradientUnits="userSpaceOnUse"><stop stop-color="#5EB9FC"/><stop offset="1"/></linearGradient></defs></svg>