<svg width="161" height="45" fill="none" xmlns="http://www.w3.org/2000/svg"><path d="M51.522 34.234c-.537 0-.988-.121-1.352-.364a1.63 1.63 0 01-.676-1.04c-.087-.45-.009-.953.234-1.508l6.474-13.936c.312-.676.693-1.17 1.144-1.482a2.795 2.795 0 011.586-.468c.59 0 1.1.156 1.534.468.45.312.84.806 1.17 1.482l6.474 13.936c.277.555.373 1.057.286 1.508a1.46 1.46 0 01-.65 1.04c-.347.243-.78.364-1.3.364-.693 0-1.23-.156-1.612-.468-.364-.312-.693-.815-.988-1.508l-1.404-3.302 1.82 1.326H53.55l1.846-1.326-1.404 3.302c-.312.693-.633 1.196-.962 1.508-.33.312-.832.468-1.508.468zm7.358-13.572l-3.016 7.202-.728-1.248h7.566l-.728 1.248-3.042-7.202h-.052zm14.266 13.572c-.763 0-1.352-.208-1.768-.624-.416-.433-.624-1.031-.624-1.794V17.854c0-.797.208-1.395.624-1.794.416-.416 1.005-.624 1.768-.624.78 0 1.37.208 1.768.624.416.399.624.997.624 1.794v5.148h2.21l-.676.468 4.056-6.812c.33-.537.72-.893 1.17-1.066.45-.19.893-.234 1.326-.13.45.104.832.32 1.144.65.33.312.52.71.572 1.196.052.468-.095.98-.442 1.534l-3.562 5.616-1.924-1.274c1.213.225 2.219.659 3.016 1.3.815.641 1.525 1.577 2.132 2.808l1.742 3.562c.312.641.407 1.205.286 1.69a1.946 1.946 0 01-.728 1.17 2.525 2.525 0 01-1.3.52 2.37 2.37 0 01-1.404-.286c-.45-.243-.806-.641-1.066-1.196l-1.768-3.9c-.33-.71-.737-1.213-1.222-1.508-.485-.295-1.11-.442-1.872-.442h-1.69v4.914c0 .763-.2 1.36-.598 1.794-.399.416-.997.624-1.794.624zM92.121 34c-.814 0-1.438-.208-1.872-.624-.416-.433-.624-1.049-.624-1.846V18.14c0-.797.208-1.404.624-1.82.434-.433 1.058-.65 1.872-.65h6.344c1.318 0 2.436.2 3.354.598.936.381 1.647.927 2.132 1.638.486.71.728 1.543.728 2.496 0 1.075-.312 1.993-.936 2.756-.606.763-1.438 1.283-2.496 1.56v-.416c1.248.225 2.21.728 2.886 1.508.694.78 1.04 1.777 1.04 2.99 0 1.612-.58 2.886-1.742 3.822-1.144.919-2.712 1.378-4.706 1.378h-6.604zm2.08-3.51h3.874c.884 0 1.526-.165 1.924-.494.416-.347.624-.858.624-1.534s-.208-1.179-.624-1.508c-.398-.33-1.04-.494-1.924-.494h-3.874v4.03zm0-7.54h3.406c.867 0 1.5-.156 1.898-.468.416-.312.624-.789.624-1.43 0-.641-.208-1.11-.624-1.404-.398-.312-1.03-.468-1.898-.468h-3.406v3.77zm14.544 11.284c-.537 0-.988-.121-1.352-.364a1.631 1.631 0 01-.676-1.04c-.086-.45-.008-.953.234-1.508l6.474-13.936c.312-.676.694-1.17 1.144-1.482a2.795 2.795 0 011.586-.468c.59 0 1.101.156 1.534.468.451.312.841.806 1.17 1.482l6.474 13.936c.278.555.373 1.057.286 1.508a1.46 1.46 0 01-.65 1.04c-.346.243-.78.364-1.3.364-.693 0-1.23-.156-1.612-.468-.364-.312-.693-.815-.988-1.508l-1.404-3.302 1.82 1.326h-10.712l1.846-1.326-1.404 3.302c-.312.693-.632 1.196-.962 1.508-.329.312-.832.468-1.508.468zm7.358-13.572l-3.016 7.202-.728-1.248h7.566l-.728 1.248-3.042-7.202h-.052zm14.266 13.572c-.762 0-1.352-.208-1.768-.624-.416-.433-.624-1.031-.624-1.794V18.088c0-.78.208-1.378.624-1.794.434-.416 1.032-.624 1.794-.624h6.396c2.08 0 3.684.537 4.81 1.612 1.144 1.057 1.716 2.522 1.716 4.394 0 1.872-.572 3.345-1.716 4.42-1.126 1.057-2.73 1.586-4.81 1.586h-4.03v4.134c0 .763-.199 1.36-.598 1.794-.398.416-.996.624-1.794.624zm2.392-10.218h3.198c.902 0 1.595-.19 2.08-.572.486-.399.728-.988.728-1.768 0-.797-.242-1.387-.728-1.768-.485-.381-1.178-.572-2.08-.572h-3.198v4.68zm19.349 10.218c-.763 0-1.352-.208-1.768-.624-.416-.433-.624-1.031-.624-1.794V19.57h-4.082c-.642 0-1.136-.165-1.482-.494-.33-.347-.494-.832-.494-1.456 0-.641.164-1.127.494-1.456.346-.33.84-.494 1.482-.494h12.948c.641 0 1.126.165 1.456.494.346.33.52.815.52 1.456 0 .624-.174 1.11-.52 1.456-.33.33-.815.494-1.456.494h-4.082v12.246c0 .763-.2 1.36-.598 1.794-.399.416-.997.624-1.794.624z" fill="#fff"/><path d="M33.92 25.378C32.315 8.746 17.874 0 17.874 0c6.904 10.23 8.821 25.675.59 28.504-8.788 3.017-15.766-6.815-7.578-17.369C3.935 13.81-.674 20.869.081 28.649c.9 9.35 9.207 16.199 18.552 15.296 9.346-.903 16.19-9.217 15.287-18.566z" fill="url(#paint0_linear_54_1139)"/><path style="mix-blend-mode:screen" d="M25.631 6.834C21.699 2.317 17.874 0 17.874 0c5.876 8.706 8.138 21.189 3.607 26.457l2.45 6.859a28.739 28.739 0 005.38-10.51c1.53-5.6.13-11.596-3.68-15.972z" fill="url(#paint1_linear_54_1139)"/><path d="M20.216 21.113a4.925 4.925 0 01-4.92 4.984 4.917 4.917 0 01-4.564-3.082 4.925 4.925 0 01-.357-1.902c0-2.722 4.92-8.378 4.92-8.378s4.92 5.659 4.92 8.378z" fill="url(#paint2_linear_54_1139)"/><path d="M6.864 31.226c4.438 6.744 14.255 7.226 18.86-.157C31.448 21.891 25.317 7.87 17.874 0c6.904 10.23 8.821 25.675.59 28.504-8.788 3.017-15.766-6.815-7.578-17.369-4.5 3.297-8.612 13.115-4.022 20.09z" fill="url(#paint3_linear_54_1139)"/><path style="mix-blend-mode:screen" d="M6.864 31.226c-4.59-6.975-.478-16.793 4.022-20.09C3.935 13.812-.674 20.87.081 28.65c.03.305.067.608.112.907-.528-4.163 2.444-4.504 4.48-.495 1.975 3.892 5.857 8.026 11.873 7.382-3.69.063-7.399-1.748-9.682-5.217z" fill="url(#paint4_linear_54_1139)"/><path style="mix-blend-mode:screen" d="M14.571 23.09c-1.45-.192-2.85-1.686-3.066-3.503-.248.58-.399 1.105-.399 1.526 0 1.978 1.384 3.609 3.221 4.082.608.155 1.378.133 1.703-.309.386-.53.147-1.585-1.459-1.796z" fill="url(#paint5_linear_54_1139)"/><defs><linearGradient id="paint0_linear_54_1139" x1="16.999" y1="48.419" x2="16.999" y2="17.102" gradientUnits="userSpaceOnUse"><stop stop-color="#1976D2"/><stop offset="1" stop-color="#51A8FF"/></linearGradient><linearGradient id="paint1_linear_54_1139" x1="35.516" y1="-4.776" x2="17.706" y2="21.421" gradientUnits="userSpaceOnUse"><stop stop-color="#5EB9FC"/><stop offset="1"/></linearGradient><linearGradient id="paint2_linear_54_1139" x1="14.96" y1="11.047" x2="15.383" y2="23.743" gradientUnits="userSpaceOnUse"><stop stop-color="#1976D2"/><stop offset="1" stop-color="#51A8FF"/></linearGradient><linearGradient id="paint3_linear_54_1139" x1="16.416" y1="35.707" x2="16.416" y2="18.869" gradientUnits="userSpaceOnUse"><stop offset=".234" stop-color="#6CB6FF"/><stop offset="1" stop-color="#1976D2"/></linearGradient><linearGradient id="paint4_linear_54_1139" x1="19.069" y1="20.747" x2=".645" y2="30.895" gradientUnits="userSpaceOnUse"><stop stop-color="#5EB9FC"/><stop offset="1"/></linearGradient><linearGradient id="paint5_linear_54_1139" x1="15.352" y1="29.83" x2="12.926" y2="20.04" gradientUnits="userSpaceOnUse"><stop stop-color="#5EB9FC"/><stop offset="1"/></linearGradient></defs></svg>