<svg width="24" height="24" fill="none" xmlns="http://www.w3.org/2000/svg"><g clip-path="url(#clip0_8_20452)"><path d="M3 19.77l1.774-2.71m14.453 0L21 19.77m1.5-9.677v1.528c0 3.375-2.686 6.111-6 6.111h-9c-3.313 0-6-2.736-6-6.111V8.18m21 1.912H10.925c-3.48 0-6.855-.73-10.034-2.169A1.54 1.54 0 01.13 5.907a1.49 1.49 0 011.98-.775 21.232 21.232 0 008.815 1.905H22.5c.829 0 1.5.684 1.5 1.528s-.671 1.528-1.5 1.528z" stroke="#425774" stroke-width="1.5" stroke-miterlimit="10" stroke-linecap="round" stroke-linejoin="round"/></g><defs><clipPath id="clip0_8_20452"><path fill="#fff" d="M0 0h24v24H0z"/></clipPath></defs></svg>