<svg width="24" height="24" fill="none" xmlns="http://www.w3.org/2000/svg"><path d="M14.288 4.525H9.712m4.576 0c0 .843.683 1.526 1.526 1.526m-1.526-1.526a1.525 1.525 0 013.051 0m-7.627 0C9.712 3.683 9.029 3 8.186 3m1.526 1.525a1.525 1.525 0 01-3.051 0M3 14.898h18m-1.373 0v1.526A4.576 4.576 0 0115.051 21H8.949a4.576 4.576 0 01-4.576-4.576v-1.526m3.05-3.05H5.899m12.204 0h-1.526m-6.101 3.05v-4.27a1.525 1.525 0 113.05 0v1.22" stroke="#425774" stroke-width="1.5" stroke-miterlimit="10" stroke-linecap="round" stroke-linejoin="round"/></svg>