<svg width="32" height="33" fill="none" xmlns="http://www.w3.org/2000/svg"><g clip-path="url(#clip0_8_20555)"><path d="M23.61 6.403h1.838m-1.837 0c.277-2.068-1.364-3.903-3.489-3.903h-8.566c-2.125 0-3.765 1.835-3.488 3.903l1.143 8.53m14.4-8.53l-1.143 8.53m-2.833 9.476l1.109 7.091h-9.81l1.11-7.091m12.458-6.274c-.73 4.045-4.331 7.116-8.663 7.116-4.331 0-7.932-3.071-8.663-7.116m18.503 0H6v-3.203h19.679v3.203z" stroke="#425774" stroke-width="1.5" stroke-miterlimit="10" stroke-linecap="round" stroke-linejoin="round"/></g><defs><clipPath id="clip0_8_20555"><path fill="#fff" transform="translate(0 .5)" d="M0 0h32v32H0z"/></clipPath></defs></svg>