<svg width="24" height="24" fill="none" xmlns="http://www.w3.org/2000/svg"><g clip-path="url(#clip0_8_20462)"><path d="M6.673 9.23h-3.22a.614.614 0 00-.613.616v7.692c0 .34.275.616.613.616h8.28a.614.614 0 00.614-.616V9.846a.614.614 0 00-.614-.615H8.667m5.213.923h8.587M13.88 12h8.587m-8.587 2.154h8.587m-8.587 2.154h8.587M2.84 20h19.32c1.016 0 1.84-.827 1.84-1.846V5.846C24 4.826 23.176 4 22.16 4H2.84C1.824 4 1 4.827 1 5.846v12.308C1 19.174 1.824 20 2.84 20zm.613-12h.92a.614.614 0 00.614-.615v-.923a.614.614 0 00-.614-.616h-.92a.614.614 0 00-.613.616v.923c0 .34.275.615.613.615zm7.36 0h.92a.614.614 0 00.614-.615v-.923a.614.614 0 00-.614-.616h-.92a.614.614 0 00-.613.616v.923c0 .34.275.615.613.615zm-3.408 3.077h.377a.614.614 0 00.612-.58l.234-4a.615.615 0 00-.612-.65H7.17a.615.615 0 00-.612.65l.235 4c.019.326.287.58.612.58zm.188 3.692a1.075 1.075 0 01-1.073-1.077 1.075 1.075 0 112.147 0c0 .595-.48 1.077-1.074 1.077z" stroke="#425774" stroke-width="1.5" stroke-miterlimit="10" stroke-linecap="round" stroke-linejoin="round"/></g><defs><clipPath id="clip0_8_20462"><path fill="#fff" d="M0 0h24v24H0z"/></clipPath></defs></svg>