<svg width="24" height="24" fill="none" xmlns="http://www.w3.org/2000/svg"><path d="M21.414 20.438V7.957A5.964 5.964 0 0015.457 2 5.964 5.964 0 009.5 7.957v3.262h-.586v1.562H9.5v3.203a.939.939 0 01-1.875 0V3.563h.547V2H2v1.563h.586v12.48c0 1.591.62 3.087 1.745 4.212A5.918 5.918 0 008.543 22a5.964 5.964 0 005.957-5.957V12.78h.586v-1.56H14.5V7.977a.939.939 0 011.875 0v12.46h-.586V22H22v-1.563h-.586zM6.062 3.563v3.359H4.149v-3.36h1.915zm6.875 12.48a4.4 4.4 0 01-4.394 4.394 4.366 4.366 0 01-3.107-1.287 4.366 4.366 0 01-1.288-3.107V8.484h1.915v7.5c0 1.379 1.121 2.5 2.5 2.5 1.378 0 2.5-1.121 2.5-2.5v-3.203h1.874v3.262zm2.5-10.566a2.503 2.503 0 00-2.5 2.5v3.242h-1.874V7.957a4.4 4.4 0 014.394-4.394 4.4 4.4 0 014.395 4.394v7.168h-1.915V7.977c0-1.379-1.121-2.5-2.5-2.5zm2.5 11.21h1.915v3.75h-1.915v-3.75z" fill="#425774"/></svg>