<svg width="26" height="37" fill="none" xmlns="http://www.w3.org/2000/svg"><path d="M7.317 1.838v7.156m0-7.156C10.456 1.838 13 4.4 13 7.563c0 2.113-1.15 3.939-2.841 4.93V24.96C11.85 25.951 13 27.776 13 29.89c0 3.162-2.544 5.725-5.683 5.725m0-33.777c-3.14 0-5.684 2.563-5.684 5.725 0 2.113 1.15 3.939 2.842 4.93V24.96c-1.692.992-2.842 2.817-2.842 4.931 0 3.162 2.545 5.725 5.684 5.725m0 0V28.46m14.209-16.245v9.089m0-9.089l2.842-2.862-2.842-5.725-2.842 5.725 2.842 2.862zm2.842 9.089v11.45c0 .57-.165 1.1-.45 1.547a2.835 2.835 0 01-2.392 1.315 2.852 2.852 0 01-2.842-2.862v-11.45h5.684z" stroke="#1976D2" stroke-width="2" stroke-miterlimit="10"/></svg>