<svg width="37" height="37" fill="none" xmlns="http://www.w3.org/2000/svg"><path d="M35.84 9.604c.104.378.16.776.16 1.187v7.417m0 7.417a4.45 4.45 0 01-4.45 4.45H5.45A4.45 4.45 0 011 25.625V10.791a4.45 4.45 0 014.45-4.45h10.38M11.827 36h13.348M18.5 36v-5.934m-.297-17.57l8.501-10.273a2.956 2.956 0 011.936-1.186 2.967 2.967 0 012.863 4.674l-9.073 10.94m-1.793-2.206a5.024 5.024 0 00-3.535-1.503c-1.321-.009-2.654.512-3.692 1.503-2.347 2.239-1.34 6.032-5.365 7.627 0 0 2.607 1.995 5.824 1.995 2.533 0 4.778-.366 6.768-2.364a5.147 5.147 0 000-7.258z" stroke="#1976D2" stroke-width="2" stroke-miterlimit="10"/></svg>