<svg width="18" height="18" fill="none" xmlns="http://www.w3.org/2000/svg"><path d="M9 0a9 9 0 100 18A9 9 0 009 0zm2.862 13.637a.635.635 0 01-.902.317l-2.443-1.899-1.569 1.447a.27.27 0 01-.256.035l.3-2.69.01.008.006-.053s4.397-4.003 4.576-4.174c.181-.17.121-.207.121-.207.01-.207-.325 0-.325 0L5.555 10.17l-2.426-.826s-.373-.134-.408-.428c-.037-.291.42-.45.42-.45l9.645-3.831s.793-.354.793.231l-1.717 8.772z" fill="#22A6E6"/><path d="M11.861 13.637a.634.634 0 01-.902.317l-2.443-1.899-1.568 1.447a.27.27 0 01-.256.035l.3-2.69.01.008.006-.053s4.397-4.003 4.576-4.173c.181-.17.121-.207.121-.207.01-.208-.325 0-.325 0l-5.825 3.747-2.426-.826s-.373-.134-.408-.427c-.037-.292.42-.45.42-.45l9.645-3.832s.793-.353.793.232l-1.718 8.771z" fill="#fff"/></svg>