<svg width="14" height="11" fill="none" xmlns="http://www.w3.org/2000/svg"><path d="M7 .5c2.73 0 5.004 1.518 6.787 4.471l.14.237.03.063.018.051.01.035.008.051.007.063v.068l-.009.07a.602.602 0 01-.016.069l-.025.067-.023.047-.01.019c-1.76 3.022-4.01 4.612-6.718 4.687L7 10.5c-2.797 0-5.115-1.593-6.916-4.69a.616.616 0 010-.62C1.885 2.093 4.203.5 7 .5zm0 3.125c-.506 0-.992.198-1.35.55a1.854 1.854 0 00.001 2.651c.357.351.843.549 1.35.549.506 0 .991-.198 1.35-.55a1.856 1.856 0 00-.001-2.651A1.927 1.927 0 007 3.625z" fill="#fff"/></svg>