<svg width="18" height="18" fill="none" xmlns="http://www.w3.org/2000/svg"><path d="M9.002 0h-.004C4.035 0 0 4.037 0 9a8.932 8.932 0 001.713 5.275L.592 17.62l3.46-1.106A8.92 8.92 0 009.001 18C13.965 18 18 13.962 18 9s-4.035-9-8.998-9zm5.237 12.71c-.217.612-1.079 1.12-1.766 1.27-.47.1-1.085.18-3.152-.678-2.645-1.096-4.348-3.783-4.481-3.958-.127-.174-1.07-1.423-1.07-2.714 0-1.292.656-1.92.92-2.19.217-.222.576-.324.92-.324.112 0 .212.006.302.01.264.012.397.027.572.445.217.523.745 1.814.808 1.947.065.133.129.313.039.487-.085.18-.159.26-.292.413-.132.153-.258.27-.391.434-.122.143-.259.296-.106.56.153.26.682 1.122 1.46 1.815 1.005.895 1.82 1.18 2.11 1.302.218.09.477.069.635-.1.202-.217.45-.577.703-.932.18-.254.408-.285.646-.195.243.084 1.529.72 1.793.851.265.133.44.196.503.307.063.112.063.635-.154 1.25z" fill="#55CD62"/><path d="M14.24 12.71c-.218.612-1.08 1.12-1.767 1.27-.47.1-1.085.18-3.152-.678-2.645-1.096-4.348-3.783-4.481-3.958-.127-.174-1.07-1.423-1.07-2.714 0-1.292.656-1.92.92-2.19.217-.222.576-.324.92-.324.112 0 .212.006.302.01.264.012.397.027.572.445.217.523.745 1.814.808 1.947.065.133.129.313.039.487-.085.18-.159.26-.292.413-.132.153-.258.27-.391.434-.122.143-.259.296-.106.56.153.26.682 1.122 1.46 1.815 1.005.895 1.82 1.18 2.11 1.302.218.09.477.069.635-.1.202-.217.45-.577.703-.932.18-.254.408-.285.646-.195.243.084 1.529.72 1.793.851.265.133.44.196.503.307.063.112.063.635-.154 1.25z" fill="#55CD62"/><path d="M14.468 12.593c-.217.613-1.079 1.121-1.766 1.27-.47.1-1.085.18-3.152-.677C6.905 12.09 5.2 9.402 5.069 9.228 4.942 9.053 4 7.805 4 6.513c0-1.291.656-1.92.92-2.19C5.137 4.1 5.496 4 5.84 4c.112 0 .212.006.302.01.264.011.397.027.571.445.218.523.746 1.814.81 1.947.064.133.128.313.038.487-.085.18-.159.26-.292.413-.133.153-.258.27-.391.434-.122.143-.259.296-.106.56.153.26.682 1.122 1.46 1.815 1.005.894 1.82 1.18 2.11 1.302.218.09.477.068.635-.1.202-.218.45-.578.703-.932.18-.254.408-.286.646-.196.243.085 1.529.72 1.793.852.265.133.44.196.503.307.063.111.063.635-.154 1.249z" fill="#fff"/></svg>